<?xml version="1.0" standalone="no"?>
<!DOCTYPE svg PUBLIC "-//W3C//DTD SVG 20010904//EN"
 "http://www.w3.org/TR/2001/REC-SVG-20010904/DTD/svg10.dtd">
<svg version="1.0" xmlns="http://www.w3.org/2000/svg"
 width="636.000000pt" height="636.000000pt" viewBox="0 0 636.000000 636.000000"
 preserveAspectRatio="xMidYMid meet">
<metadata>
Created by potrace 1.11, written by Peter Selinger 2001-2013
</metadata>
<g transform="translate(0.000000,636.000000) scale(0.100000,-0.100000)"
fill="#000000" stroke="none">
<path d="M2968 6355 c-1 -1 -39 -6 -83 -9 -104 -9 -368 -50 -385 -61 -4 -2
-22 -7 -41 -10 -19 -3 -52 -11 -74 -17 -48 -14 -40 -12 -95 -27 -25 -6 -49
-13 -55 -15 -5 -2 -12 -4 -15 -4 -7 -1 -142 -51 -165 -61 -21 -10 -51 -20 -63
-22 -4 0 -18 -7 -32 -14 -14 -7 -81 -40 -150 -74 -169 -82 -214 -107 -397
-229 -62 -41 -113 -79 -113 -83 0 -5 -5 -9 -10 -9 -6 0 -37 -21 -68 -48 -31
-26 -68 -56 -81 -67 -54 -43 -289 -278 -333 -332 -25 -32 -54 -68 -65 -79 -18
-21 -26 -32 -95 -124 -76 -102 -223 -340 -210 -340 4 0 2 -4 -4 -8 -18 -12
-105 -195 -174 -367 -18 -45 -62 -166 -64 -178 -2 -6 -9 -32 -16 -57 -8 -25
-14 -47 -15 -50 0 -3 -4 -14 -8 -25 -3 -11 -8 -31 -11 -45 -2 -14 -11 -52 -19
-85 -8 -33 -18 -76 -21 -95 -3 -19 -8 -44 -10 -56 -2 -12 -8 -45 -11 -75 -4
-30 -9 -65 -11 -79 -20 -126 -26 -527 -11 -665 4 -38 9 -83 11 -100 6 -57 21
-146 36 -225 17 -83 18 -88 45 -190 14 -52 27 -102 30 -110 2 -8 4 -16 5 -17
2 -2 3 -6 4 -10 4 -23 80 -230 87 -238 5 -5 9 -15 9 -22 0 -43 262 -529 292
-541 4 -2 8 -8 8 -12 0 -29 177 -253 317 -400 l62 -65 3 -255 c3 -236 5 -260
26 -320 70 -198 238 -343 477 -411 80 -24 271 -33 350 -19 156 30 288 93 399
193 35 31 42 34 70 25 124 -38 314 -78 480 -103 21 -3 42 -8 46 -10 5 -3 11
-1 15 5 4 7 12 7 25 0 10 -5 29 -10 42 -9 13 0 61 -2 108 -5 181 -12 401 -4
567 19 21 3 54 8 73 10 19 2 68 11 108 19 39 7 72 11 72 9 0 -3 6 0 14 6 8 6
18 11 22 10 5 -1 12 0 17 1 4 1 12 4 17 5 6 1 11 3 13 4 1 1 17 4 35 7 105 13
446 142 642 242 173 88 379 212 388 234 2 5 8 8 13 8 8 0 35 20 64 47 8 7 16
13 20 13 4 0 12 6 19 12 7 7 27 24 45 38 134 104 292 257 432 420 244 285 460
671 582 1045 30 89 86 296 92 336 2 14 11 62 19 107 8 44 18 109 21 144 4 34
9 74 12 88 12 56 10 499 -2 605 -19 158 -27 219 -31 226 -1 3 -6 28 -10 55 -3
27 -10 59 -15 72 -5 12 -8 26 -7 30 1 4 -4 27 -12 52 -7 25 -13 52 -14 60 -2
8 -5 22 -8 30 -3 8 -15 49 -28 90 -28 94 -40 130 -50 155 -5 11 -21 52 -36 90
-45 119 -163 356 -226 453 -9 15 -25 42 -34 60 -9 17 -20 32 -25 32 -5 0 -9 6
-9 13 0 7 -9 23 -20 35 -11 12 -20 24 -20 27 0 7 -117 160 -179 235 -179 214
-402 414 -636 570 -44 29 -91 61 -105 70 -14 9 -45 27 -70 41 -25 13 -47 27
-50 30 -5 6 -251 126 -305 149 -87 37 -195 78 -195 74 0 -2 -20 5 -45 16 -25
11 -47 20 -50 20 -6 1 -17 4 -70 19 -22 7 -47 13 -55 15 -8 1 -24 5 -35 9 -11
3 -31 9 -45 11 -14 3 -47 11 -75 16 -48 11 -60 13 -135 26 -19 3 -44 8 -56 10
-11 2 -34 5 -50 7 -17 2 -35 6 -41 10 -7 4 -14 3 -18 -3 -4 -6 -11 -8 -16 -4
-6 3 -22 8 -37 10 -32 6 -508 14 -514 9z"/>
</g>
</svg>
